# xmcd
#
# Track frame offsets: 
#        150
#        14365
#        41537
#        66022
#        81372
#        99317
#        110235
#        172440
#        189110
#        203705
#        217552
#        234207
#        249947
#
# Disc length: 3532 seconds
#
# Revision: 0
# Processed by: cddbd v1.5.2PL0 Copyright (c) Steve Scherf et al.
# Submitted via: ExactAudioCopy v0.95b3
#
DISCID=a30dca0d
DTITLE=Sly and The Family Stone  - Stand (2007 Remaster)  FLAC
DYEAR=1900
DGENRE=
TTITLE0=Stand!
TTITLE1=Don't Call me Nigger, Whitey
TTITLE2=I Want To Take You Higher
TTITLE3=Somebody's Watching You
TTITLE4=Sing A Simple Song
TTITLE5=Everyday People
TTITLE6=Sex Machine
TTITLE7=You Can Make It If You Try
TTITLE8=Stand!
TTITLE9=I Want To Take You Higher
TTITLE10=You Can Make It If You Try
TTITLE11=Soul Clappin'
TTITLE12=My Brain (Zig-Zag)
EXTD=
EXTT0=
EXTT1=
EXTT2=
EXTT3=
EXTT4=
EXTT5=
EXTT6=
EXTT7=
EXTT8=
EXTT9=
EXTT10=
EXTT11=
EXTT12=
PLAYORDER=
